<svg width="250" height="250" viewBox="0 0 250 250" fill="none" xmlns="http://www.w3.org/2000/svg">
<circle cx="125" cy="125" r="122.5" fill="#EFF1F3" stroke="#33658A" stroke-width="5"/>
<g clip-path="url(#clip0_8_2)">
<g style="mix-blend-mode:multiply">
<g style="mix-blend-mode:multiply">
<path d="M92.1512 76.8506C82.7803 76.6868 83.3008 62.4204 92.4001 62.5793C101.499 62.7382 101.522 77.0141 92.1512 76.8506Z" fill="#FD1999"/>
</g>
<g style="mix-blend-mode:multiply">
<path d="M158.896 82.2305C149.525 82.0669 150.046 67.8005 159.145 67.9594C168.244 68.1184 168.267 82.394 158.896 82.2305Z" fill="#FD1999"/>
</g>
<g style="mix-blend-mode:multiply">
<path d="M123.706 129.201C128.867 129.291 141.174 125.303 139.562 123.632C136.359 120.313 129.04 127.119 123.744 127.026C118.447 126.934 112.762 117.998 106.462 120.878C103.961 122.023 118.545 129.111 123.706 129.201Z" fill="#FD1999"/>
</g>
<g style="mix-blend-mode:multiply">
<path d="M109.738 57.7157C112.537 53.3627 108.619 43.9645 103.051 43.8673C87.0256 43.5875 77.0461 39.3956 72.6869 40.0742C59.3373 42.1524 60.0864 53.7218 63.5723 56.3658C65.345 55.9889 70.1637 50.5176 72.5019 50.6756C83.3571 51.409 106.107 63.3625 109.738 57.7157Z" fill="#FD1999"/>
</g>
<g style="mix-blend-mode:multiply">
<path d="M190.565 73.5385C191.529 64.99 188.067 60.9868 182.265 58.7102C170.661 54.1569 163.897 60.3052 147.669 56.0668C143.206 54.9012 133.164 62.0675 139.324 67.2055C145.483 72.3434 165.592 64.4048 178.451 67.0729C181.046 67.6115 186.798 71.4332 190.565 73.5385Z" fill="#FD1999"/>
</g>
<g style="mix-blend-mode:multiply">
<path fill-rule="evenodd" clip-rule="evenodd" d="M87.7332 127.621C82.7577 129.292 80.1258 131.625 75.7256 138.424C62.8438 121.476 58.3294 99.9164 62.2251 71.2977L58.8749 68.6558C25.1328 165.004 91.1109 237.669 120.415 239.948C149.719 242.227 219.604 168.807 194.713 77.1458L191.259 80.4843C192.567 117.158 186.087 132.696 164.715 153.574C163.987 144.322 163.125 139.813 159.61 134.722C154.203 136.14 150.719 135.458 142.395 132.518C133.079 129.229 128.729 129.491 122.27 133.663C117.92 129.247 115.725 127.238 103.735 129.26C95.9128 130.579 92.6099 129.971 87.7332 127.621ZM120.365 149.4C109.476 156.497 103.083 154.029 91.4967 145.497C87.7724 172.08 91.7873 175.549 105.216 184.485C106.523 171.863 95.3871 171.669 97.7136 155.123C114.455 165.277 124.464 166.057 143.277 159.861C143.023 174.404 127.433 172.5 129.779 186.001C143.553 179.749 150.256 174.89 150.305 154.138C134.436 158.727 127.471 158.321 120.365 149.4Z" fill="#FD1999"/>
</g>
<g style="mix-blend-mode:multiply">
<path fill-rule="evenodd" clip-rule="evenodd" d="M55.0615 59.189C62.2147 54.1586 101.449 56.0646 120.621 63.047C123.376 64.0504 129.436 64.0149 133.253 63.2676C159.891 58.0527 190.993 63.5974 198.133 67.1137L196.857 77.9448C192.635 78.5492 188.695 94.082 185.926 97.0183C177.105 104.19 145.073 102.274 139.289 98.9173C134.561 96.1737 128.93 77.4371 127.045 76.4545C125.787 75.799 124.876 75.8452 123.241 76.3881C121.055 77.1141 113.657 94.883 108.758 96.6207C97.1364 100.742 68.9707 95.2477 65.1097 90.7032C59.2597 83.8177 61.8763 73.553 54.4766 69.3538L55.0615 59.189ZM114.5 71.2158C110.778 62.8751 70.4514 59.5934 67.1941 64.6918C65.102 67.9663 65.7825 83.292 68.1903 85.4662C76.6175 93.0749 103.504 94.0213 105.983 92.0953C110.253 88.7783 117.246 77.3688 114.5 71.2158ZM185.409 72.1824C184.326 67.4153 141.599 67.7546 137.732 71.35C132.84 75.8983 141.558 93.4477 143.311 94.2392C156.118 100.025 181.708 95.322 182.883 92.3527C183.309 91.2746 187.764 82.5516 185.409 72.1824Z" fill="#FD1999"/>
</g>
</g>
<g style="mix-blend-mode:multiply">
<g style="mix-blend-mode:multiply">
<path d="M91.6865 77.2579C82.3252 77.4214 82.3477 63.1545 91.4375 62.9957C100.528 62.8369 101.048 77.0943 91.6865 77.2579Z" fill="#1AC8ED"/>
</g>
<g style="mix-blend-mode:multiply">
<path d="M158.51 80.3028C149.148 80.4663 149.171 66.1993 158.261 66.0405C167.351 65.8817 167.871 80.1393 158.51 80.3028Z" fill="#1AC8ED"/>
</g>
<g style="mix-blend-mode:multiply">
<path d="M125.014 128.443C130.17 128.353 142.318 123.94 140.65 122.327C137.337 119.124 130.268 126.177 124.976 126.27C119.685 126.362 113.697 117.635 107.509 120.732C105.051 121.962 119.859 128.533 125.014 128.443Z" fill="#1AC8ED"/>
</g>
<g style="mix-blend-mode:multiply">
<path d="M108.578 57.5332C111.22 53.0879 106.982 43.838 101.419 43.9352C85.41 44.2149 75.3004 40.3763 70.9721 41.2061C57.7167 43.7475 58.8678 55.2765 62.4402 57.7956C64.1968 57.3573 68.817 51.7247 71.1569 51.8009C82.02 52.1546 105.15 63.2997 108.578 57.5332Z" fill="#1AC8ED"/>
</g>
<g style="mix-blend-mode:multiply">
<path d="M189.824 70.5164C190.489 61.9449 186.893 58.0675 181.021 55.9961C169.278 51.8533 162.739 58.23 146.39 54.563C141.894 53.5545 132.118 61.0623 138.446 65.979C144.774 70.8957 164.574 62.2654 177.505 64.4816C180.115 64.9288 185.99 68.5453 189.824 70.5164Z" fill="#1AC8ED"/>
</g>
<g style="mix-blend-mode:multiply">
<path fill-rule="evenodd" clip-rule="evenodd" d="M89.0451 128.12C84.136 129.962 81.5896 132.384 77.4337 139.329C63.9821 122.851 58.7237 101.475 61.6155 72.7559L58.1787 70.2343C27.8497 167.641 96.253 237.914 125.588 239.168C154.924 240.422 222.137 164.655 194.092 73.9747L190.759 77.4296C193.344 114.012 187.415 129.757 166.806 151.355C165.757 142.14 164.739 137.666 161.052 132.705C155.704 134.309 152.202 133.749 143.789 131.104C134.373 128.144 130.039 128.557 123.736 132.949C119.239 128.691 116.978 126.761 105.078 129.199C97.3145 130.789 93.9958 130.297 89.0451 128.12ZM122.382 148.734C111.759 156.201 105.291 153.96 93.4255 145.843C90.6339 172.522 94.7632 175.847 108.482 184.303C109.347 171.652 98.222 171.847 99.9678 155.239C117.036 164.797 127.055 165.227 145.622 158.382C145.875 172.916 130.245 171.559 133.057 184.961C146.59 178.236 153.113 173.15 152.439 152.421C136.756 157.558 129.788 157.396 122.382 148.734Z" fill="#1AC8ED"/>
</g>
<g style="mix-blend-mode:multiply">
<path fill-rule="evenodd" clip-rule="evenodd" d="M54.0417 60.9122C61.0078 55.6385 100.244 56.1733 119.629 62.4782C122.414 63.3843 128.463 63.1374 132.248 62.2578C158.66 56.12 189.906 60.5727 197.157 63.8356L196.26 74.6977C192.065 75.449 188.674 91.1001 186.012 94.1292C177.455 101.6 145.408 100.804 139.516 97.653C134.701 95.0775 128.425 76.5605 126.509 75.6449C125.231 75.0343 124.323 75.1121 122.71 75.7113C120.552 76.5129 113.786 94.5178 108.955 96.4242C97.4962 100.946 69.1849 96.4411 65.1718 92.037C59.0914 85.3641 61.3459 75.0207 53.8119 71.0849L54.0417 60.9122ZM113.802 70.8503C109.796 62.65 69.4205 60.7792 66.3462 65.9849C64.3716 69.3284 65.5852 84.6114 68.0649 86.6988C76.7436 94.0041 103.619 94.0114 106.027 92.0013C110.175 88.5393 116.758 76.8998 113.802 70.8503ZM184.629 69.342C183.382 64.6185 140.737 66.4481 137.001 70.1741C132.276 74.8871 141.591 92.1107 143.369 92.8405C156.357 98.1722 181.741 92.582 182.81 89.5755C183.199 88.4841 187.342 79.6163 184.629 69.342Z" fill="#1AC8ED"/>
</g>
</g>
<path d="M91.946 77.0783C82.5686 77.0783 82.8404 62.8015 91.946 62.8015C101.051 62.8015 101.323 77.0783 91.946 77.0783Z" fill="#2F323A"/>
<path d="M158.81 81.2933C149.433 81.2933 149.705 67.0166 158.81 67.0166C167.916 67.0166 168.188 81.2933 158.81 81.2933Z" fill="#2F323A"/>
<path d="M124.427 128.882C129.591 128.882 141.834 124.679 140.191 123.036C136.93 119.773 129.727 126.707 124.427 126.707C119.126 126.707 113.283 117.869 107.031 120.86C104.549 122.048 119.262 128.882 124.427 128.882Z" fill="#2F323A"/>
<path d="M109.206 57.6347C111.929 53.2324 107.847 43.9019 102.274 43.9019C86.238 43.9019 76.1811 39.8838 71.8322 40.6386C58.5137 42.9501 59.465 54.5074 62.9985 57.0909C64.7652 56.6829 69.4903 51.1271 71.8322 51.2442C82.7044 51.7881 105.672 63.3454 109.206 57.6347Z" fill="#2F323A"/>
<path d="M190.34 72.0474C191.155 63.4814 187.622 59.5383 181.778 57.3628C170.09 53.0118 163.431 59.2788 147.123 55.3233C142.638 54.2356 132.717 61.5779 138.968 66.6087C145.22 71.6395 165.198 63.3491 178.108 65.7929C180.714 66.2861 186.534 70.0079 190.34 72.0474Z" fill="#2F323A"/>
<path fill-rule="evenodd" clip-rule="evenodd" d="M88.4124 127.931C83.4641 129.688 80.872 132.068 76.5888 138.944C63.4061 122.22 58.5137 100.737 61.9113 72.0474L58.5137 69.464C26.4404 166.41 93.7125 237.93 123.068 239.697C152.423 241.465 221.054 166.818 194.553 75.5826L191.155 78.9818C193.104 115.636 186.893 131.288 165.877 152.541C164.988 143.301 164.046 138.807 160.441 133.777C155.057 135.29 151.56 134.668 143.181 131.874C133.804 128.747 129.456 129.085 123.068 133.37C118.639 129.03 116.409 127.059 104.449 129.29C96.6469 130.746 93.3321 130.195 88.4124 127.931ZM121.437 149.142C110.668 156.429 104.229 154.073 92.4894 145.743C89.2279 172.393 93.3049 175.792 106.895 184.494C107.982 171.849 96.8385 171.849 98.8769 155.26C115.803 165.123 125.828 165.729 144.541 159.204C144.541 173.752 128.911 172.121 131.494 185.582C145.164 179.089 151.784 174.112 151.471 153.357C135.677 158.224 128.702 157.939 121.437 149.142Z" fill="#2F323A"/>
<path fill-rule="evenodd" clip-rule="evenodd" d="M54.5336 60.0628C61.6018 54.9071 100.884 56.1282 120.186 62.7764C122.96 63.7318 129.021 63.5905 132.827 62.7764C159.384 57.0959 190.595 62.098 197.799 65.4899L196.712 76.3442C192.498 77.0226 188.828 92.6256 186.11 95.6106C177.411 102.937 145.332 101.58 139.487 98.3241C134.71 95.6626 128.749 77.0226 126.846 76.0729C125.577 75.4394 124.666 75.5015 123.04 76.0729C120.865 76.8373 113.775 94.7368 108.904 96.5602C97.3501 100.885 69.0777 95.8819 65.1358 91.4043C59.1634 84.6207 61.6018 74.3091 54.1259 70.2386L54.5336 60.0628ZM114.205 71.0528C110.336 62.7764 69.9365 60.1985 66.7669 65.3543C64.7312 68.6658 65.6795 83.9809 68.1262 86.1129C76.6895 93.5752 103.603 94.0525 106.049 92.083C110.263 88.6909 117.059 77.1583 114.205 71.0528ZM185.158 70.7815C183.992 66.0327 141.254 67.1181 137.448 70.7815C132.634 75.4152 141.662 92.8141 143.429 93.5752C156.342 99.1382 181.86 93.9875 182.983 90.9975C183.391 89.9121 187.695 81.1105 185.158 70.7815Z" fill="#33658A"/>
</g>
<defs>
<clipPath id="clip0_8_2">
<rect width="151.293" height="200" fill="white" transform="translate(49.5 40)"/>
</clipPath>
</defs>
</svg>
